<svg data-name="Layer 1" xmlns="http://www.w3.org/2000/svg" viewBox="0 0 64 40.93"><title>expandable</title><path d="M4.64,3V38H59.36V3ZM6.35,16.68H7.2v2.57H6.35Zm0,3.42H7.2v2.57H6.35Zm0,3.42H7.2v2.57H6.35Zm0,3.42H7.2v2.57H6.35Zm0,3.42H7.2v2.57H6.35Zm1.71,5.13H6.77a.42.42,0,0,1-.42-.42V33.78H7.2v.86h.86Zm3.36,0H8.88v-.85h2.54Zm3.36,0H12.24v-.85h2.54Zm3.36,0H15.6v-.85h2.54Zm3.36,0H19v-.85H21.5Zm3.36,0H22.33v-.85h2.53Zm3.37,0H25.69v-.85h2.54Zm3.36,0H29.05v-.85h2.54Zm3.36,0H32.41v-.85H35Zm3.36,0H35.77v-.85h2.54Zm3.36,0H39.14v-.85h2.53Zm3.36,0H42.5v-.85H45Zm3.36,0H45.86v-.85h2.53Zm3.37,0H49.22v-.85h2.54Zm3.36,0H52.58v-.85h2.54Zm2.53-.42a.42.42,0,0,1-.42.42H55.94v-.85h.86v-.86h.85Zm0-2.14H56.8V30.36h.85Zm0-3.42H56.8V26.94h.85Zm0-3.42H56.8V23.52h.85Zm0-3.42H56.8V20.1h.85Zm0-3.42H56.8V16.68h.85Zm0-4.71v1.29H56.8V15H7.2v.86H6.35V6.42h51.3Z"/><path d="M8.88,14.12H56.8V7.28H7.2v6.84H8.88ZM48.75,9.6a.43.43,0,0,1,.59-.11L51.67,11,54,9.49a.42.42,0,0,1,.59.11.43.43,0,0,1-.12.6l-2.8,1.87-2.8-1.87A.43.43,0,0,1,48.75,9.6Zm-38.25.67H34.69a1.08,1.08,0,0,1,.52.12.33.33,0,0,1,0,.61,1.08,1.08,0,0,1-.52.12H10.5c-.4,0-.73-.19-.73-.42S10.1,10.27,10.5,10.27Z"/></svg>
